<svg xmlns="http://www.w3.org/2000/svg" fill-rule="evenodd" stroke-linejoin="round" stroke-miterlimit="2" clip-rule="evenodd" viewBox="0 0 512 512"><path d="M1269.25,619.6C1218.3,635.391 1181.25,682.915 1181.25,739.024C1181.25,795.133 1218.3,842.658 1269.25,858.449L1269.25,1042.4C1269.25,1053.77 1278.48,1063 1289.85,1063C1289.85,1063 1557.65,1063 1557.65,1063C1569.02,1063 1578.25,1053.77 1578.25,1042.4L1578.25,934.437C1578.58,931.665 1578.75,928.84 1578.75,925.976C1578.75,923.111 1578.58,920.286 1578.25,917.514L1578.25,593.597C1578.25,582.229 1569.02,573 1557.65,573L1289.85,573C1278.48,573 1269.25,582.229 1269.25,593.597L1269.25,619.6ZM1279.25,861.096L1279.25,1042.4C1279.25,1048.25 1284,1053 1289.85,1053L1557.65,1053C1563.5,1053 1568.25,1048.25 1568.25,1042.4L1568.25,963.131C1563.87,970.242 1558.27,976.524 1551.75,981.685L1551.75,995.667C1551.75,1005.51 1543.76,1013.5 1533.92,1013.5C1533.92,1013.5 1313.58,1013.5 1313.58,1013.5C1303.74,1013.5 1295.75,1005.51 1295.75,995.667L1295.75,863.589C1290.14,863.121 1284.63,862.281 1279.25,861.096ZM1385.25,1039L1462.25,1039C1465.01,1039 1467.25,1036.76 1467.25,1034C1467.25,1031.24 1465.01,1029 1462.25,1029L1385.25,1029C1382.49,1029 1380.25,1031.24 1380.25,1034C1380.25,1036.76 1382.49,1039 1385.25,1039ZM1541.75,863.642L1541.75,615.333C1541.75,611.01 1538.24,607.5 1533.92,607.5C1533.92,607.5 1313.58,607.5 1313.58,607.5C1309.7,607.5 1306.48,610.324 1305.86,614.025C1305.99,614.025 1306.12,614.024 1306.25,614.024C1375.24,614.024 1431.25,670.035 1431.25,739.024C1431.25,763.397 1424.26,786.149 1412.18,805.382L1412.18,859.024C1412.18,861.786 1409.94,864.024 1407.18,864.024L1306.25,864.024L1306.05,864.024C1305.98,864.024 1305.91,864.024 1305.85,864.024L1305.75,864.023L1305.75,995.667C1305.75,999.99 1309.26,1003.5 1313.58,1003.5L1533.92,1003.5C1538.24,1003.5 1541.75,999.99 1541.75,995.667L1541.75,988.309C1531.65,993.835 1520.06,996.976 1507.75,996.976L1452.24,996.976C1449.48,996.976 1447.24,994.737 1447.24,991.976L1447.24,963.115C1440.59,952.308 1436.75,939.587 1436.75,925.976C1436.75,886.79 1468.56,854.976 1507.75,854.976C1520.06,854.976 1531.65,858.116 1541.75,863.642ZM1568.25,918.137C1564.4,888.166 1538.76,864.976 1507.75,864.976C1474.08,864.976 1446.75,892.309 1446.75,925.976C1446.75,938.125 1450.31,949.45 1456.44,958.962C1456.5,959.045 1456.55,959.129 1456.59,959.214C1456.78,959.541 1456.93,959.892 1457.04,960.259C1457.14,960.627 1457.21,961.002 1457.23,961.378C1457.24,961.475 1457.24,961.573 1457.24,961.672C1457.24,961.672 1457.24,986.976 1457.24,986.976L1507.75,986.976C1538.76,986.976 1564.4,963.785 1568.25,933.815L1568.25,918.137ZM1568.25,888.82L1568.25,593.597C1568.25,587.748 1563.5,583 1557.65,583C1557.65,583 1289.85,583 1289.85,583C1284,583 1279.25,587.748 1279.25,593.597L1279.25,616.953C1284.63,615.766 1290.15,614.926 1295.77,614.458C1296.23,605.021 1304.03,597.5 1313.58,597.5L1533.92,597.5C1543.76,597.5 1551.75,605.49 1551.75,615.333L1551.75,870.266C1558.27,875.427 1563.87,881.709 1568.25,888.82ZM1402.82,801.469C1402.87,801.384 1402.92,801.3 1402.98,801.217C1414.54,783.283 1421.25,761.931 1421.25,739.024C1421.25,675.554 1369.72,624.024 1306.25,624.024C1242.78,624.024 1191.25,675.554 1191.25,739.024C1191.25,802.495 1242.78,854.024 1306.25,854.024C1306.25,854.024 1402.18,854.024 1402.18,854.024L1402.18,803.927C1402.18,803.828 1402.18,803.73 1402.19,803.633C1402.21,803.257 1402.27,802.882 1402.38,802.514C1402.49,802.147 1402.64,801.796 1402.82,801.469ZM1322.51,722.761L1322.51,689.241C1322.51,680.266 1315.23,672.978 1306.25,672.978C1297.27,672.978 1289.99,680.266 1289.99,689.241L1289.99,722.761C1289.99,722.761 1256.47,722.761 1256.47,722.761C1247.49,722.761 1240.2,730.049 1240.2,739.024C1240.2,748 1247.49,755.288 1256.47,755.288L1289.99,755.288C1289.99,755.288 1289.99,788.807 1289.99,788.807C1289.99,797.783 1297.27,805.071 1306.25,805.071C1315.23,805.071 1322.51,797.783 1322.51,788.807L1322.51,755.288C1322.51,755.288 1356.03,755.288 1356.03,755.288C1365.01,755.288 1372.3,748 1372.3,739.024C1372.3,730.049 1365.01,722.761 1356.03,722.761L1322.51,722.761ZM1312.51,727.761C1312.51,730.523 1314.75,732.761 1317.51,732.761L1356.03,732.761C1359.49,732.761 1362.3,735.568 1362.3,739.024C1362.3,742.481 1359.49,745.288 1356.03,745.288C1356.03,745.288 1317.51,745.288 1317.51,745.288C1314.75,745.288 1312.51,747.526 1312.51,750.288L1312.51,788.807C1312.51,792.264 1309.71,795.071 1306.25,795.071C1302.79,795.071 1299.99,792.264 1299.99,788.807C1299.99,788.807 1299.99,750.288 1299.99,750.288C1299.99,747.526 1297.75,745.288 1294.99,745.288L1256.47,745.288C1253.01,745.288 1250.2,742.481 1250.2,739.024C1250.2,735.568 1253.01,732.761 1256.47,732.761L1294.99,732.761C1297.75,732.761 1299.99,730.523 1299.99,727.761L1299.99,689.241C1299.99,685.785 1302.79,682.978 1306.25,682.978C1309.71,682.978 1312.51,685.785 1312.51,689.241C1312.51,689.241 1312.51,727.761 1312.51,727.761Z" transform="translate(-1124 -562)"/></svg>