<svg xmlns="http://www.w3.org/2000/svg" enable-background="new 0 0 60 60" viewBox="0 0 60 60"><path fill="#2b79c2" d="M44.4604378,22.0351238v8.8670349h-5.413002c-1.5809135,0-2.8697281,1.2888126-2.8697281,2.8697796v4.9747963
			c0,7.0197144-5.7137547,12.7334709-12.7334709,12.7334709c-7.0197678,0-12.7334719-5.7137566-12.7334719-12.7334709v-23.207222
			h8.8756361v23.207222c0,2.1222687,1.726965,3.8578339,3.8578358,3.8578339c2.1308193,0,3.8578377-1.7355652,3.8578377-3.8578339
			v-4.9747963c0-6.4698639,5.2669487-11.7368145,11.7453613-11.7368145H44.4604378z"/><path fill="#3b4651" d="M21.7687702 9.3790035v6.1605082c0 .4726057-.3866539.8592081-.8592072.8592081H9.3790035c-.4726067 0-.8592091-.3866024-.8592091-.8592081V9.3790035c0-.4811554.3866024-.8592091.8592091-.8592091h11.5305595C21.3821163 8.5197945 21.7687702 8.8978481 21.7687702 9.3790035zM51.4802055 20.60886v11.5219612c0 .4811516-.3780556.8592072-.8592072.8592072h-6.1605606c-.4725571 0-.859211-.3780556-.859211-.8592072V20.60886c0-.4811535.3866539-.8592072.859211-.8592072h6.1605606C51.10215 19.7496529 51.4802055 20.1277065 51.4802055 20.60886z"/></svg>