<svg xmlns="http://www.w3.org/2000/svg" viewBox="0 0 66 66"><path d="M34.2 11.9c-.2.2-.5.3-.7.3-.3 0-.5-.1-.7-.3-.4-.4-.4-1 0-1.4l1.4-1.4c-.3-.2-.7-.2-1.1-.2-1.5 0-2.8 1.3-2.8 2.8 0 1.5 1.3 2.8 2.8 2.8 1.5 0 2.8-1.3 2.8-2.8 0-.4-.1-.8-.2-1.1l-1.5 1.3zm-3.5 20.5c0 1.3 1 2.3 2.3 2.3 1.3 0 2.3-1 2.3-2.3 0-.9-1.2-3.4-2.3-5.6-1.1 2.2-2.3 4.8-2.3 5.6zM12.5 51.1c0 1.7 1.4 3.1 3.1 3.1h34.8c1.7 0 3.1-1.4 3.1-3.1v-5.5h-41v5.5z"/><path d="M50.4 1H15.6c-1.7 0-3.1 1.4-3.1 3.1v39.5h41V4.1c0-1.7-1.4-3.1-3.1-3.1zM20.7 14.9h-1.3c-.6 0-1-.4-1-1s.4-1 1-1h1.3c.6 0 1 .4 1 1s-.5 1-1 1zm0-4.5h-1.3c-.6 0-1-.4-1-1s.4-1 1-1h1.3c.6 0 1 .4 1 1 0 .5-.5 1-1 1zM33 36.7c-2.4 0-4.3-1.9-4.3-4.3 0-2 2.9-7.2 3.4-8.2.4-.6 1.4-.6 1.7 0 .6 1 3.4 6.2 3.4 8.2.1 2.4-1.8 4.3-4.2 4.3zm0-20.3c-2.6 0-4.8-2.2-4.8-4.8 0-2.6 2.2-4.8 4.8-4.8 2.6 0 4.8 2.2 4.8 4.8 0 2.7-2.2 4.8-4.8 4.8zM21.3 59.5c.1.4.5.7 1 .7h1.9V64c0 .6.4 1 1 1h4.2c.6 0 1-.4 1-1v-3.9h4V64c0 .6.5 1 1 1h4.2c.6 0 1-.4 1-1v-3.9h3.2c.4 0 .8-.3 1-.7l.9-3.3H20.4l.9 3.4z"/></svg>